<mxfile host="app.diagrams.net" agent="Mozilla/5.0 (Windows NT 10.0; Win64; x64; rv:134.0) Gecko/20100101 Firefox/134.0" version="26.0.10">
  <diagram name="Stránka-1" id="XKNu6CYzInfKynkdf6Gy">
    <mxGraphModel dx="2012" dy="648" grid="1" gridSize="10" guides="1" tooltips="1" connect="1" arrows="1" fold="1" page="1" pageScale="1" pageWidth="827" pageHeight="1169" math="0" shadow="0">
      <root>
        <mxCell id="0" />
        <mxCell id="1" parent="0" />
        <mxCell id="KL059c6Qq9YdeAiMvhsF-1" value="&lt;b&gt;&lt;font style=&quot;font-size: 16px;&quot;&gt;Klient&lt;/font&gt;&lt;/b&gt;" style="rounded=1;whiteSpace=wrap;html=1;fillColor=#f5f5f5;fontColor=#333333;strokeColor=#666666;" parent="1" vertex="1">
          <mxGeometry x="300" y="560" width="120" height="60" as="geometry" />
        </mxCell>
        <mxCell id="KL059c6Qq9YdeAiMvhsF-3" value="&lt;font face=&quot;Times New Roman&quot; size=&quot;1&quot;&gt;&lt;b style=&quot;font-size: 16px;&quot;&gt;Server&lt;/b&gt;&lt;/font&gt;" style="rounded=1;whiteSpace=wrap;html=1;fillColor=#f5f5f5;fontColor=#333333;strokeColor=#666666;" parent="1" vertex="1">
          <mxGeometry x="300" y="380" width="120" height="60" as="geometry" />
        </mxCell>
        <mxCell id="KL059c6Qq9YdeAiMvhsF-6" value="" style="endArrow=classic;html=1;rounded=0;entryX=0.25;entryY=1;entryDx=0;entryDy=0;" parent="1" target="KL059c6Qq9YdeAiMvhsF-3" edge="1">
          <mxGeometry width="50" height="50" relative="1" as="geometry">
            <mxPoint x="330" y="560" as="sourcePoint" />
            <mxPoint x="330" y="430" as="targetPoint" />
          </mxGeometry>
        </mxCell>
        <mxCell id="KL059c6Qq9YdeAiMvhsF-7" value="" style="endArrow=classic;html=1;rounded=0;exitX=0.75;exitY=1;exitDx=0;exitDy=0;" parent="1" source="KL059c6Qq9YdeAiMvhsF-3" edge="1">
          <mxGeometry width="50" height="50" relative="1" as="geometry">
            <mxPoint x="466" y="390" as="sourcePoint" />
            <mxPoint x="390" y="560" as="targetPoint" />
          </mxGeometry>
        </mxCell>
        <mxCell id="UwZQLeHLgje2HQHH53os-4" value="" style="shape=note;whiteSpace=wrap;html=1;backgroundOutline=1;darkOpacity=0.05;fillColor=#f5f5f5;fontColor=#333333;strokeColor=#666666;" parent="1" vertex="1">
          <mxGeometry x="220" y="210" width="80" height="90" as="geometry" />
        </mxCell>
        <mxCell id="UwZQLeHLgje2HQHH53os-5" value="&lt;font face=&quot;Times New Roman&quot; style=&quot;font-size: 16px;&quot;&gt;&lt;b&gt;Přestupní body&lt;/b&gt;&lt;/font&gt;" style="text;whiteSpace=wrap;html=1;" parent="1" vertex="1">
          <mxGeometry x="100" y="240" width="120" height="40" as="geometry" />
        </mxCell>
        <mxCell id="UwZQLeHLgje2HQHH53os-7" value="&lt;font face=&quot;Times New Roman&quot;&gt;&lt;b&gt;REST API&lt;br&gt;&lt;/b&gt;&lt;/font&gt;" style="text;whiteSpace=wrap;html=1;" parent="1" vertex="1">
          <mxGeometry x="330" y="490" width="60" height="40" as="geometry" />
        </mxCell>
        <mxCell id="UwZQLeHLgje2HQHH53os-8" value="" style="endArrow=classic;html=1;rounded=0;exitX=0.588;exitY=1.022;exitDx=0;exitDy=0;exitPerimeter=0;entryX=0.25;entryY=0;entryDx=0;entryDy=0;" parent="1" source="UwZQLeHLgje2HQHH53os-4" target="KL059c6Qq9YdeAiMvhsF-3" edge="1">
          <mxGeometry width="50" height="50" relative="1" as="geometry">
            <mxPoint x="380" y="550" as="sourcePoint" />
            <mxPoint x="430" y="500" as="targetPoint" />
          </mxGeometry>
        </mxCell>
        <mxCell id="UwZQLeHLgje2HQHH53os-10" value="" style="endArrow=classic;html=1;rounded=0;exitX=0.5;exitY=1;exitDx=0;exitDy=0;entryX=0.75;entryY=0;entryDx=0;entryDy=0;" parent="1" target="KL059c6Qq9YdeAiMvhsF-3" edge="1">
          <mxGeometry width="50" height="50" relative="1" as="geometry">
            <mxPoint x="515" y="300" as="sourcePoint" />
            <mxPoint x="430" y="500" as="targetPoint" />
          </mxGeometry>
        </mxCell>
        <mxCell id="UwZQLeHLgje2HQHH53os-13" value="" style="shape=note;whiteSpace=wrap;html=1;backgroundOutline=1;darkOpacity=0.05;fillColor=#f5f5f5;fontColor=#333333;strokeColor=#666666;" parent="1" vertex="1">
          <mxGeometry x="470" y="210" width="80" height="90" as="geometry" />
        </mxCell>
        <mxCell id="UwZQLeHLgje2HQHH53os-14" value="&lt;font face=&quot;Times New Roman&quot;&gt;&lt;b&gt;&lt;font style=&quot;font-size: 16px;&quot;&gt;Soubory GTFS&lt;br&gt;&lt;/font&gt;&lt;/b&gt;&lt;/font&gt;" style="text;whiteSpace=wrap;html=1;" parent="1" vertex="1">
          <mxGeometry x="560" y="240" width="120" height="40" as="geometry" />
        </mxCell>
        <mxCell id="UwZQLeHLgje2HQHH53os-15" value="" style="shape=datastore;whiteSpace=wrap;html=1;fillColor=#f5f5f5;fontColor=#333333;strokeColor=#666666;" parent="1" vertex="1">
          <mxGeometry x="460" y="40" width="70" height="80" as="geometry" />
        </mxCell>
        <mxCell id="UwZQLeHLgje2HQHH53os-16" style="edgeStyle=orthogonalEdgeStyle;rounded=0;orthogonalLoop=1;jettySize=auto;html=1;exitX=0;exitY=0.5;exitDx=0;exitDy=0;exitPerimeter=0;entryX=1.013;entryY=0.5;entryDx=0;entryDy=0;entryPerimeter=0;" parent="1" source="UwZQLeHLgje2HQHH53os-13" target="UwZQLeHLgje2HQHH53os-4" edge="1">
          <mxGeometry relative="1" as="geometry" />
        </mxCell>
        <mxCell id="UwZQLeHLgje2HQHH53os-17" style="edgeStyle=orthogonalEdgeStyle;rounded=0;orthogonalLoop=1;jettySize=auto;html=1;exitX=0.5;exitY=1;exitDx=0;exitDy=0;entryX=0;entryY=0;entryDx=25;entryDy=0;entryPerimeter=0;" parent="1" source="UwZQLeHLgje2HQHH53os-15" target="UwZQLeHLgje2HQHH53os-13" edge="1">
          <mxGeometry relative="1" as="geometry" />
        </mxCell>
        <mxCell id="UwZQLeHLgje2HQHH53os-18" value="&lt;font style=&quot;font-size: 16px;&quot;&gt;&lt;b&gt;Dataset města Brna&lt;br&gt;&lt;/b&gt;&lt;/font&gt;" style="text;whiteSpace=wrap;html=1;" parent="1" vertex="1">
          <mxGeometry x="420" y="10" width="165" height="40" as="geometry" />
        </mxCell>
        <mxCell id="UwZQLeHLgje2HQHH53os-19" value="" style="endArrow=none;dashed=1;html=1;dashPattern=1 3;strokeWidth=2;rounded=0;" parent="1" edge="1">
          <mxGeometry width="50" height="50" relative="1" as="geometry">
            <mxPoint y="340" as="sourcePoint" />
            <mxPoint x="820" y="340" as="targetPoint" />
          </mxGeometry>
        </mxCell>
        <mxCell id="UwZQLeHLgje2HQHH53os-21" value="&lt;b&gt;&lt;font style=&quot;font-size: 16px;&quot;&gt;Datová vrstva&lt;/font&gt;&lt;/b&gt;" style="text;html=1;align=center;verticalAlign=middle;whiteSpace=wrap;rounded=0;" parent="1" vertex="1">
          <mxGeometry x="700" y="310" width="127" height="30" as="geometry" />
        </mxCell>
        <mxCell id="HBz2DMZV7spZ5Ir1X_qr-1" value="&lt;font face=&quot;Times New Roman&quot; style=&quot;font-size: 16px;&quot;&gt;&lt;b&gt;OpenTripPlanner&lt;/b&gt;&lt;/font&gt;" style="rounded=1;whiteSpace=wrap;html=1;fillColor=#ffe6cc;strokeColor=#d79b00;" parent="1" vertex="1">
          <mxGeometry x="620" y="375" width="145" height="70" as="geometry" />
        </mxCell>
        <mxCell id="ngDzmtQPcsqIGbSzrKc3-4" value="" style="endArrow=classic;html=1;rounded=0;entryX=0;entryY=0.787;entryDx=0;entryDy=0;entryPerimeter=0;" edge="1" parent="1" target="HBz2DMZV7spZ5Ir1X_qr-1">
          <mxGeometry width="50" height="50" relative="1" as="geometry">
            <mxPoint x="420" y="430" as="sourcePoint" />
            <mxPoint x="470" y="380" as="targetPoint" />
          </mxGeometry>
        </mxCell>
        <mxCell id="ngDzmtQPcsqIGbSzrKc3-5" value="" style="endArrow=classic;html=1;rounded=0;entryX=1.004;entryY=0.178;entryDx=0;entryDy=0;entryPerimeter=0;exitX=0;exitY=0.213;exitDx=0;exitDy=0;exitPerimeter=0;" edge="1" parent="1" source="HBz2DMZV7spZ5Ir1X_qr-1" target="KL059c6Qq9YdeAiMvhsF-3">
          <mxGeometry width="50" height="50" relative="1" as="geometry">
            <mxPoint x="450" y="400" as="sourcePoint" />
            <mxPoint x="500" y="350" as="targetPoint" />
          </mxGeometry>
        </mxCell>
        <mxCell id="ngDzmtQPcsqIGbSzrKc3-6" value="&lt;div&gt;&lt;font face=&quot;Times New Roman&quot;&gt;&lt;b&gt;GraphQL&lt;/b&gt;&lt;/font&gt;&lt;/div&gt;" style="text;whiteSpace=wrap;html=1;" vertex="1" parent="1">
          <mxGeometry x="490" y="430" width="60" height="30" as="geometry" />
        </mxCell>
        <mxCell id="ngDzmtQPcsqIGbSzrKc3-8" value="&lt;font face=&quot;Times New Roman&quot; style=&quot;font-size: 16px;&quot;&gt;&lt;b&gt;Lissy&lt;/b&gt;&lt;/font&gt;" style="rounded=1;whiteSpace=wrap;html=1;fillColor=#ffe6cc;strokeColor=#d79b00;" vertex="1" parent="1">
          <mxGeometry x="30" y="380" width="120" height="60" as="geometry" />
        </mxCell>
        <mxCell id="ngDzmtQPcsqIGbSzrKc3-9" value="" style="endArrow=classic;html=1;rounded=0;exitX=0;exitY=0.75;exitDx=0;exitDy=0;entryX=1;entryY=0.75;entryDx=0;entryDy=0;" edge="1" parent="1" source="KL059c6Qq9YdeAiMvhsF-3" target="ngDzmtQPcsqIGbSzrKc3-8">
          <mxGeometry width="50" height="50" relative="1" as="geometry">
            <mxPoint x="200" y="470" as="sourcePoint" />
            <mxPoint x="250" y="420" as="targetPoint" />
          </mxGeometry>
        </mxCell>
        <mxCell id="ngDzmtQPcsqIGbSzrKc3-11" value="" style="endArrow=classic;html=1;rounded=0;exitX=1;exitY=0.25;exitDx=0;exitDy=0;entryX=0;entryY=0.25;entryDx=0;entryDy=0;" edge="1" parent="1" source="ngDzmtQPcsqIGbSzrKc3-8" target="KL059c6Qq9YdeAiMvhsF-3">
          <mxGeometry width="50" height="50" relative="1" as="geometry">
            <mxPoint x="310" y="400" as="sourcePoint" />
            <mxPoint x="160" y="400" as="targetPoint" />
          </mxGeometry>
        </mxCell>
        <mxCell id="ngDzmtQPcsqIGbSzrKc3-12" value="&lt;font face=&quot;Times New Roman&quot;&gt;Informace o zpoždění, trasy linek&lt;/font&gt;" style="text;html=1;align=center;verticalAlign=middle;whiteSpace=wrap;rounded=0;" vertex="1" parent="1">
          <mxGeometry x="160" y="360" width="130" height="30" as="geometry" />
        </mxCell>
        <mxCell id="ngDzmtQPcsqIGbSzrKc3-13" value="&lt;font face=&quot;Times New Roman&quot;&gt;Plány cest&lt;br&gt;&lt;/font&gt;" style="text;html=1;align=center;verticalAlign=middle;whiteSpace=wrap;rounded=0;" vertex="1" parent="1">
          <mxGeometry x="455" y="360" width="130" height="30" as="geometry" />
        </mxCell>
        <mxCell id="ngDzmtQPcsqIGbSzrKc3-14" value="" style="endArrow=classic;html=1;rounded=0;exitX=1.004;exitY=0.886;exitDx=0;exitDy=0;exitPerimeter=0;entryX=0.5;entryY=0;entryDx=0;entryDy=0;" edge="1" parent="1" source="UwZQLeHLgje2HQHH53os-13" target="HBz2DMZV7spZ5Ir1X_qr-1">
          <mxGeometry width="50" height="50" relative="1" as="geometry">
            <mxPoint x="690" y="310" as="sourcePoint" />
            <mxPoint x="740" y="260" as="targetPoint" />
          </mxGeometry>
        </mxCell>
      </root>
    </mxGraphModel>
  </diagram>
</mxfile>
